<svg width="115" height="115" viewBox="0 0 115 115" fill="none" xmlns="http://www.w3.org/2000/svg">
<rect width="114.17" height="114.17" rx="12" fill="#212121"/>
<path d="M44.3298 71.85C44.3298 71.91 44.3098 71.98 44.2698 72.03L33.7898 86.69C33.7298 86.77 33.6398 86.82 33.5398 86.82H23.3798C23.2098 86.82 23.0698 86.68 23.0698 86.51V42.31C23.0698 42.25 23.0898 42.18 23.1298 42.13L33.6098 27.47C33.6698 27.39 33.7598 27.34 33.8598 27.34H44.0198C44.1898 27.34 44.3298 27.48 44.3298 27.65V71.85ZM67.7098 57.08V71.85C67.7098 71.91 67.6898 71.98 67.6498 72.03L57.1698 86.69C57.1098 86.77 57.0198 86.82 56.9198 86.82H46.7598C46.5898 86.82 46.4498 86.68 46.4498 86.51V42.31C46.4498 42.25 46.4698 42.18 46.5098 42.13L56.9898 27.47C57.0498 27.39 57.1398 27.34 57.2398 27.34H67.3998C67.5698 27.34 67.7098 27.48 67.7098 27.65V57.08ZM91.0998 71.85C91.0998 71.91 91.0798 71.98 91.0398 72.03L80.5598 86.69C80.4998 86.77 80.4098 86.82 80.3098 86.82H70.1498C69.9798 86.82 69.8398 86.68 69.8398 86.51V42.31C69.8398 42.25 69.8598 42.18 69.8998 42.13L80.3798 27.47C80.4398 27.39 80.5298 27.34 80.6298 27.34H90.7898C90.9598 27.34 91.0998 27.48 91.0998 27.65V71.85Z" fill="#F3F3F3"/>
</svg>
