<?xml version="1.0" encoding="UTF-8"?>
<svg id="Layer_1" data-name="Layer 1" xmlns="http://www.w3.org/2000/svg" viewBox="0 0 115 115">
  <defs>
    <style>
      .cls-1 {
        fill: #fff;
      }
    </style>
  </defs>
  <path class="cls-1" d="M102.17,0H12C5.37,0,0,5.37,0,12v90.17c0,6.63,5.37,12,12,12h90.17c6.63,0,12-5.37,12-12V12c0-6.63-5.37-12-12-12ZM44.33,71.85c0,.06-.02.13-.06.18l-10.48,14.66c-.06.08-.15.13-.25.13h-10.16c-.17,0-.31-.14-.31-.31v-44.2c0-.06.02-.13.06-.18l10.48-14.66c.06-.08.15-.13.25-.13h10.16c.17,0,.31.14.31.31v44.2ZM67.71,57.08v14.77c0,.06-.02.13-.06.18l-10.48,14.66c-.06.08-.15.13-.25.13h-10.16c-.17,0-.31-.14-.31-.31v-44.2c0-.06.02-.13.06-.18l10.48-14.66c.06-.08.15-.13.25-.13h10.16c.17,0,.31.14.31.31v29.43ZM91.1,71.85c0,.06-.02.13-.06.18l-10.48,14.66c-.06.08-.15.13-.25.13h-10.16c-.17,0-.31-.14-.31-.31v-44.2c0-.06.02-.13.06-.18l10.48-14.66c.06-.08.15-.13.25-.13h10.16c.17,0,.31.14.31.31v44.2Z"/>
</svg>