<?xml version="1.0" encoding="utf-8"?>
<!-- Generator: Adobe Illustrator 28.3.0, SVG Export Plug-In . SVG Version: 6.00 Build 0)  -->
<svg version="1.1" id="Layer_1" xmlns="http://www.w3.org/2000/svg" xmlns:xlink="http://www.w3.org/1999/xlink" x="0px" y="0px"
	 viewBox="0 0 221 193.2" style="enable-background:new 0 0 221 193.2;" xml:space="preserve">
<style type="text/css">
	.st0{fill:#8E8F87;}
</style>
<path class="st0" d="M34,193.2H1c-0.6,0-1-0.4-1-1V48.6c0-0.2,0.1-0.4,0.2-0.6l34-47.6C34.4,0.2,34.7,0,35,0h33c0.6,0,1,0.4,1,1
	v143.6c0,0.2-0.1,0.4-0.2,0.6l-34,47.6C34.6,193,34.3,193.2,34,193.2z M110.8,192.8l34-47.6c0.1-0.2,0.2-0.4,0.2-0.6v-48V1
	c0-0.6-0.4-1-1-1h-33c-0.3,0-0.6,0.2-0.8,0.4L76.1,48C76,48.2,76,48.4,76,48.6v143.6c0,0.6,0.4,1,1,1h33
	C110.3,193.2,110.6,193,110.8,192.8z M186.7,192.8l34-47.6c0.1-0.2,0.2-0.4,0.2-0.6V1c0-0.6-0.4-1-1-1h-33c-0.3,0-0.6,0.2-0.8,0.4
	l-34,47.6c-0.1,0.2-0.2,0.4-0.2,0.6v143.6c0,0.6,0.4,1,1,1h33C186.3,193.2,186.6,193,186.7,192.8z"/>
</svg>
