<?xml version="1.0" encoding="UTF-8"?>
<svg id="Layer_1" xmlns="http://www.w3.org/2000/svg" version="1.1" viewBox="0 0 533.1 560">
  <!-- Generator: Adobe Illustrator 30.0.0, SVG Export Plug-In . SVG Version: 2.1.1 Build 123)  -->
  <defs>
    <style>
      .st0 {
        fill: #eff3f5;
      }
    </style>
  </defs>
  <path class="st0" d="M379.9,176.4c-27.8-27.8-57.8-39.8-88.3-39.8h0c-45.7,0-92.5,27.1-134.1,68.7-69.4,69.4-98.3,153-28.9,222.4,28.7,28.7,75.3,41.3,125.1,41.3,70.6,0,147.5-25.4,188.2-66.1,69.4-69.4,7.5-157.1-61.9-226.5ZM414.6,375.7c-15.4,15.4-39.6,29.3-68.2,39.1-29.3,10.1-62.2,15.7-92.7,15.7s-78.8-10.9-97.8-30c-12.4-12.4-20.8-25.4-25.1-38.8-3.9-12.1-4.5-24.5-1.9-38.1,5.4-28.4,24.7-59.9,55.9-91.1,18.8-18.8,37.8-33.3,56.3-43.2,17.7-9.4,34.6-14.2,50.2-14.2,21.7.2,42.4,9.5,61.5,28.5,38.3,38.3,63.3,72,74.4,100.2,11.8,29.9,8,51.4-12.5,71.9ZM172.1,136.6c0,25.2-20.4,45.6-45.6,45.6s-45.6-20.4-45.6-45.6,20.4-45.6,45.6-45.6,45.6,20.4,45.6,45.6Z"/>
</svg>