<?xml version="1.0" encoding="UTF-8"?>
<svg id="Layer_1" xmlns="http://www.w3.org/2000/svg" version="1.1" viewBox="0 0 533.1 560">
  <!-- Generator: Adobe Illustrator 30.0.0, SVG Export Plug-In . SVG Version: 2.1.1 Build 123)  -->
  <defs>
    <style>
      .st0 {
        fill: #eff3f5;
      }
    </style>
  </defs>
  <path class="st0" d="M188.7,224.2c-9.1-2-18-4.3-25.9-7.3-3.4-1.3-6.9,1.9-5.9,5.4l35.6,119.2v.2c.6,2.4,6.9,7.1,27.4,8.1,18.9,1,43.3-1.5,68.7-7,25.4-5.5,48.7-13.3,65.5-21.9,18.2-9.4,22.1-16.3,21.6-18.7v-.3c0,0,0-.3,0-.3l-8.7-77.6c-.3-2.9-3.3-4.7-6.1-3.6-7.3,3-17,6.1-27.7,8.5-16.1,3.7-34.1,5.6-52.8,5.6-6,0-12.1-.2-18.3-.6-25.9-1.7-51.3-5-73.4-9.7ZM281.9,285.2c10.9,0,21.5-4.7,29.1-12.8,2.7-2.9,5.1-6.2,7.8-9.9.3-.4.7-.6,1.2-.6s.3,0,.5,0c1.9.6,2.9,2.7,2.3,4.5-1,2.9-2.7,5.6-4.3,8.2-.5.7-.9,1.5-1.4,2.2-6.7,11.5-18.2,17.5-33.1,17.5h0c-17.2,0-33.9-7.8-43.7-15.2-.7-.5-1.4-.9-2.2-1.4-1.1-.7-2.3-1.4-3.3-2.2-5.1,5.7-12,8.9-19.3,9h0c-.7,0-1.2-.4-1.4-1.1-.2-.6,0-1.3.6-1.7,3.4-2.2,6.3-4.3,8.8-6.5,7.3-6.1,11.5-14.2,14.2-27.1.1-.6.7-1.1,1.3-1.2,0,0,0,0,.1,0,.6,0,1.2.4,1.4,1,2.6,7,2,14.8-1.6,21.7,13.5,9.2,27.7,14.5,41.3,15.5.6,0,1.2,0,1.8,0ZM265.2,468.5c-6.3-5.5-11.7-7.7-16-6.4,0,0-.7.2-1.5.3-2.9.6-5.8-1.3-6.3-4.3-.5-2.9,1.6-5.5,4.4-6.2,0,0,.1,0,.1,0,1.4-.5,4-1.1,8.1-2.6,13.1-6.4,13.6-28.5,8.1-41.1-20,12-32.7,17.1-48.4,17.1h-1.1c-7-1.6-17-2.8-24.6-2.3-5.6.3-9.5,5.6-8.4,11,1.1,5.2,3.4,13.3,8.1,25.5.9,2.5,1.9,4.9,2.9,7.2,4.8,11.8,16.3,19.7,29.1,19.9l38.3.8c5.6.1,8.9-3.5,10.2-6.9,1.3-3.4,1.2-8.4-3-12ZM444.1,407.3c-2.7-7-10.3-19.1-30.9-21.5-1.7-.2-3.5-.3-5.2-.3-15.2,0-29,7.6-40,22.1-1.9,2.5-3.7,5.1-5.4,8-4-2.8-8.2-6.2-12.5-10.3,7.1-10.2,20-29.9,25.7-44.2,3.2-1.6,6.2-3.1,9-4.7,27.8-15.3,40.2-31.6,37-48.2l-32.6-228.7s-.2-1-.2-1.1c0-.3,0-.5-.1-.7-4.3-19.8-33.2-22.1-54.6-22.1s-2.5,0-3.8,0c-14.9.2-32,1.6-50.8,4.2-2.5-1.7-4.9-3.6-7.5-5.8-2.3-2-5.3-3.1-8.4-3.1s-.5,0-.7,0c-3.7.2-7.1,1.9-9.3,4.7-2.1,2.6-2.9,6-2.4,9.2-.2,0-.4,0-.6,0-1.4,0-2.8.1-4.1.4-4.7.9-9.4,1.8-14.1,2.8-.6-2.1-1.3-4.1-2.2-6.1-1.7-3.7-5.6-6.2-9.8-6.2s-.4,0-.7,0c0,0-.1,0-.2,0-4.7.4-8.5,3.6-9.6,8-1.5,6.1-3.3,11.3-5.5,15.8-2.1-1.7-4.7-2.7-7.5-2.7s-2.1.1-3.1.4c-23.9,6.5-45.6,13.9-62.8,21.4-22.8,10-48.5,24-44.1,44.2,0,.2,0,.3.1.5,0,.2,0,.3.1.5l64.9,222.6c3.9,16.5,22,26.1,53.6,28.7,5.4.4,11.2.6,17.2.6s10.1-.2,15.6-.5c.6.8,1.3,1.7,2,2.6-12.5,5.9-20.3,7.6-25.1,7.8-3-.6-8.8-1.6-15.5-2.1-2.8-.2-5.4-.3-7.9-.3-10.6,0-18.5,2-24.3,6-14.2,9.9-7.2,32.4,1.1,54.6,1.2,3.1,2.4,6.3,3.8,9.6-16.9,2.1-30.4,6.3-30.4,16.9s16.2,14.4,23.9,15.8c11.2,2,26,3.1,41.6,3.1,63.2,0,73.3-2.3,77.9-17.9.2-.5.3-1.1.5-1.7,0,0,0,0,0-.1.3-.7.6-1.4.9-2.1,3.7-9.9,1.8-20.9-4.6-29.3,3.8-1.9,7.6-3.8,11.3-5.8,4.6,4,9.3,7.9,14.1,11.8,5.3,4.3,10.8,8.6,16.4,12.9-9.9,2.4-15.8,6.3-15.8,13.5,0,11,14.7,13.5,21.8,14.7,9.8,1.7,22.8,2.6,36.4,2.6s26.6-.9,36.4-2.6c7.1-1.2,21.8-3.7,21.8-14.7s-6.5-11.2-15.5-13.4c9.9-8.2,17.2-14.9,21.7-20,5.6-6.3,10.1-14.2,12.6-22.3,3.1-9.9,3.1-19.3,0-27.4ZM218.9,65.9c.2-.7.9-1.2,1.7-1.3,0,0,0,0,0,0,.8,0,1.6.4,1.9,1,1.5,3.2,2.3,6.6,2.6,10.1.1,1.6,1.6,2.8,3.2,2.4.9-.2,1.8-.4,2.7-.6,5.9-1.3,11.7-2.5,17.5-3.5,4.5-.8,9,.7,12.2,3.9,0,0,0,0,0,0,1.7,1.7.7,4.5-1.6,4.9-8.5,1.5-17.1,3.2-25.9,5.1-1.7.4-3.4.8-5.2,1.1-3.2.7-5.8,2.7-7.4,5.6-1,1.8-2.1,3.5-3.4,5.1-8.2,10.4-21.4,17-35.4,17.8-.5,0-1,0-1.5,0-.8,0-1.6-.4-1.8-1.1-.2-.7,0-1.4.8-1.8,5.9-3.2,10.8-6.4,15.2-9.6,12.6-9,19.9-20.7,24.4-39.2ZM298.5,151.2c4.2.3,10.1-3,13.9-.8h.1c1.4,1.4,1.6,3.6,1.9,5.4,1,6.6,1.7,13.8.9,20.4-.8,12.3-10.9,25-24.2,19.8-11.5-4.8-16.1-18.4-19.1-30.4-3.5-17.8-12.6-47.9,1.6-61.9,5.6-5.5,14.4-5.7,20.7-1.2,9.3,6.3,13.2,19.5,15.7,30.1.6,2.5,1.1,5.1-.2,7.4-2.1,3.8-10.1,8.6-11.5,10.6-.2.3-.3.6,0,.7ZM330.8,218.4c7.1-1.6,13.5-3.4,18.8-5.3,2.5-.8,2.2-4.4-.4-4.9-2-.4-4.1-.8-6.3-1.2-6.4-1.2-13.8-2.8-22.2-4.7-3.1-.7-4.5-4.4-2.6-6.9.3-.5.7-.9,1-1.4,1-1.6,2.9-2.3,4.7-1.9,8,1.8,15,3.3,21,4.5h.1c6.2,1.3,11.3,2.2,15.4,2.9,9.7,1.6,14.1,2.4,15.5,6.8.3.9,10.2,94,10.2,94,1.9,9.7-7.3,19.9-27.2,30.2-17.6,9.1-41.8,17.2-68.1,22.9-22.6,4.9-44.5,7.5-62.7,7.5-3,0-6,0-8.8-.2-22.5-1.1-35-6.6-37.3-16.3l-42.6-142.8h.4c0-.1,0-.2,0-.2-3.8-5.4-4.7-11.9-2.4-17.8,1.8-4.8,7.4-13.5,24.1-17.4,9.9-2.6,23.1-3.2,38.9-1.7,1.7.2,3.1,1.4,3.4,3.1,0,.2,0,.4.1.6.6,2.6,1.1,5.1,1.5,7.3v.2c-7.7-.9-14.8-1.4-21.2-1.4s-14.7.7-20.2,2.2h-.2c-8.6,2-14.7,6.1-16.6,10.8-1.3,3.3,0,6.1,1.2,7.8h0c6.4,9.7,26,15,42.3,18.6,21.6,4.5,46.4,7.8,71.8,9.4,24.1,1.5,47.6,0,68-4.7ZM241.4,159.2c4.2.3,10.1-3,13.9-.8h.1c1.4,1.4,1.6,3.6,1.9,5.4,1,6.6,1.7,13.8.9,20.4-.8,12.3-10.9,25-24.2,19.8-11.5-4.8-16.1-18.4-19.1-30.4-3.5-17.8-12.6-47.9,1.6-61.9,5.6-5.5,14.4-5.7,20.7-1.2,9.3,6.3,13.2,19.5,15.7,30.1.6,2.5,1.1,5.1-.2,7.4-2.1,3.8-10.1,8.6-11.5,10.6-.2.3-.3.6,0,.7ZM435.6,432.1c-2.2,6.9-6,13.6-10.8,19-6.7,7.5-19.3,18-30.6,26.9-2.2,1.7-1.2,5.2,1.5,5.5,12.4,1.5,20.5,4,20.5,6.9,0,4.7-22.1,8.5-49.4,8.5s-49.4-3.8-49.4-8.5,8.8-5.5,22.2-7.1c2.6-.3,3.5-3.6,1.4-5.1-8-5.9-17.5-13.1-27.4-21.2-6.5-5.3-12.7-10.5-18.5-15.6-10.8,6.2-20.7,10.9-28.5,14.3,1.8,1.2,3.7,2.5,5.6,4.1,7.1,6,10.1,15.8,6.9,24.4-.3.7-.6,1.4-.9,2.1,0,0,0,0,0,0,0,0,0,.2,0,.3-3.2,9.3,1.7,13.7-70,13.7s-56.7-4.5-56.7-10,14.2-7.7,34.4-9.2c0,0,0,.1,0,.2-2.5-5.8-5.6-13.1-8.4-20.6-10-26.6-11.3-39.4-4.4-44.2,5.3-3.7,13.9-5.1,26.4-4.1,7.3.6,13.6,1.7,15.5,2.1,9.7-.2,23.1-4.9,39.6-13.8-4.3-5-8.1-9.9-11.5-14.6-6.9.5-13.5.8-19.9.8-5.8,0-11.3-.2-16.5-.6-27.1-2.2-42.9-9.8-45.7-22.1l-64.9-222.9h0c0-.1,0-.2-.1-.4-2.3-10.6,10.5-21.8,39-34.2,17-7.4,38.2-14.6,61.6-20.9,2.8-.7,4.9,2.5,3.1,4.7,0,0,0,0-.1.1-3.6,4.5-8.5,7.8-14,9.4-17.4,5.2-33.2,10.8-46.3,16.5-28.1,12.3-33,20.4-32.8,22.1h0c0,0,0,.2,0,.2.8,1.7,8.9,6.9,39,6.5,14.5-.2,31.3-1.6,49.4-4.1,2.5-.3,4.8,1.4,5,3.9,0,.6.1,1.1.2,1.7.3,2.4-1.4,4.7-3.8,5-18.6,2.6-35.9,4-50.7,4.2-1.2,0-2.5,0-3.6,0-9.6,0-17.7-.6-24.3-1.7-3.2-.6-6,2.4-5,5.6l58.7,201.6v.2c2,9.1,26.2,16.1,65.3,14.1l4.9-.3h.3s0,0,0,0c2.5-.2,4.9,1.1,6.3,3.2.4.5.7,1,1.1,1.6,1.2,1.7,2.4,3.3,3.7,5,14.3,18.7,37,38.9,67.4,63.4,15.5,12.5,29.8,23,39.2,29.7,5.2,3.7,12.1,3.5,17.1-.3,12.5-9.5,31.9-24.7,40.2-34.1,6.9-7.8,12.4-20.8,9-29.6-1.9-5.1-6.9-8.1-14.8-9-10-1.1-19.2,3.6-27.2,14-6.4,8.4-9.6,17.4-9.7,17.5h0c-1,2.8-4.1,4.3-6.9,3.3-28.3-10.5-53.6-45.8-64.7-63.2-.3-.4-.6-.9-.8-1.3-.8-1.2-1.1-2.5-1.1-3.8,0-2.8,1.7-5.5,4.6-6.6.2,0,.3,0,.5-.1.2,0,.3-.1.5-.1h.5c0-.1,0,0,0,0,63.6-15.8,98.7-40.9,96.1-53.1v-.4c0,0-29.6-207.6-29.6-207.6-.5-3.2-4.1-4.9-6.9-3-6.2,4.2-14.5,8.5-24.8,13-6,2.6-12.5,5.2-19.5,7.7-2.3.8-4.9-.4-5.7-2.7-.2-.6-.4-1.1-.6-1.6-.8-2.3.4-4.9,2.7-5.7,6.7-2.4,13-4.9,18.8-7.5,27.5-12,32.8-20,32.8-21.9v-.2s0,0,0,0c-.5-1.5-7.8-6.6-35.7-6.6s-2.2,0-3.4,0c-8.2.1-17.2.6-26.7,1.5-1,0-1.1,1.6,0,1.8,5.3.9,11.2,1.4,17.7,1.7.8,0,1.5.5,1.7,1.1.2.7-.2,1.3-.9,1.7-5.5,2.5-11.4,3.9-17.7,4.3-19.6,1.1-38.2-8.8-44.4-23.4-.4-.9-.2-1.9.4-2.6.7-.8,1.7-1.3,2.9-1.4,1.1,0,2,.3,2.8.9,2.9,2.5,5.8,4.8,8.8,6.8,1.5,1,3.4,1.4,5.2,1.2,18.4-2.5,35.5-4,50.2-4.2,31.1-.4,47.4,4.5,49.6,15.1,0,.1,0,.3,0,.4h0s0,0,0,0v.8c.1,0,32.7,228.9,32.7,228.9,2.5,12.3-8.7,25.8-32.5,39-3.7,2-7.7,4-11.8,6-5.9,18.1-29.9,51.4-30.1,51.7,7.7,7.9,15.1,14.1,22.1,18.5,2.8,1.8,6.5.7,8.1-2.2,1.6-3,3.7-6.4,6.2-9.7,10.3-13.6,23.2-19.9,37.1-18.3,15.2,1.7,21.2,9.6,23.6,15.8,2.4,6.1,2.3,13.6-.2,21.6Z"/>
</svg>