<?xml version="1.0" encoding="UTF-8"?>
<svg id="Layer_1" xmlns="http://www.w3.org/2000/svg" version="1.1" viewBox="0 0 533.1 560">
  <!-- Generator: Adobe Illustrator 30.0.0, SVG Export Plug-In . SVG Version: 2.1.1 Build 123)  -->
  <defs>
    <style>
      .st0 {
        fill: #333;
      }
    </style>
  </defs>
  <path class="st0" d="M239.3,246.7c-.2-.6-.8-1-1.4-1s0,0-.1,0c-.7,0-1.2.5-1.4,1.2-2.8,13.4-7.2,21.9-14.8,28.2-2.6,2.3-5.6,4.5-9.2,6.8-.6.4-.8,1.1-.6,1.7.2.7.8,1.1,1.5,1.1h0c7.6,0,14.8-3.4,20.1-9.3,1.1.9,2.3,1.6,3.5,2.3.8.5,1.6,1,2.3,1.5,10.2,7.6,27.6,15.8,45.5,15.8h0c15.5,0,27.4-6.3,34.4-18.2.5-.8.9-1.6,1.4-2.3,1.7-2.7,3.4-5.5,4.4-8.5.6-1.9-.4-4-2.4-4.7-.2,0-.3,0-.5,0-.5,0-.9.2-1.2.6-2.8,3.8-5.3,7.2-8.1,10.3-7.9,8.5-18.9,13.4-30.2,13.4s-1.3,0-1.9,0c-14.1-1-29-6.5-43-16.1,3.7-7.2,4.3-15.3,1.7-22.5ZM442.6,415.8c-2.5-6.5-8.8-14.7-24.6-16.5-14.5-1.7-27.8,4.9-38.6,19.1-2.6,3.4-4.8,6.9-6.5,10.1-1.7,3-5.5,4.1-8.5,2.3-7.3-4.5-15-11-23-19.2.3-.3,25.2-35,31.3-53.8,4.3-2,8.4-4.1,12.3-6.2,24.8-13.7,36.5-27.7,33.9-40.5l-33.9-238.1v-.8c-.1,0-.1-.1-.1-.1h0c0-.1,0-.3,0-.4-2.4-11-19.3-16.1-51.6-15.7-15.3.2-33.1,1.7-52.2,4.3-1.9.3-3.8-.2-5.4-1.2-3.1-2.1-6.1-4.4-9.1-7-.8-.7-1.8-1-2.9-.9-1.2,0-2.3.6-3,1.4-.7.8-.8,1.8-.4,2.7,6.5,15.2,25.9,25.5,46.2,24.4,6.5-.4,12.7-1.8,18.4-4.4.7-.3,1.1-1,1-1.7-.2-.7-.9-1.2-1.7-1.2-6.8-.3-12.9-.8-18.5-1.8-1.1-.2-1-1.8,0-1.9,9.9-.9,19.2-1.4,27.8-1.6,1.2,0,2.4,0,3.5,0,29,0,36.6,5.2,37.1,6.8h0c0,0,0,.3,0,.3,0,2-5.5,10.3-34.2,22.8-6,2.6-12.6,5.2-19.5,7.8-2.4.9-3.7,3.5-2.8,6,.2.6.4,1.1.6,1.7.8,2.5,3.5,3.7,6,2.8,7.2-2.6,14-5.3,20.2-8,10.7-4.7,19.3-9.2,25.8-13.6,2.8-1.9,6.7-.2,7.1,3.2l30.8,216v.4c2.8,12.7-33.7,38.8-99.9,55.2,0,0,0,0,0,0h-.5c-.2.2-.3.2-.5.3-.2,0-.3,0-.5.2-2.9,1.1-4.7,3.9-4.7,6.9,0,1.3.3,2.7,1.1,3.9.3.4.6.9.8,1.3,11.6,18.1,37.9,54.7,67.3,65.7,2.9,1.1,6.2-.4,7.2-3.4h0c0,0,3.4-9.5,10.1-18.2,8.3-10.8,17.9-15.7,28.3-14.6,8.2.9,13.4,4.1,15.4,9.4,3.5,9.2-2.2,22.8-9.4,30.8-8.7,9.8-28.8,25.6-41.8,35.4-5.2,4-12.4,4.1-17.8.3-9.9-7-24.7-17.9-40.8-30.9-31.5-25.5-55.2-46.5-70.1-66-1.3-1.8-2.6-3.5-3.8-5.2-.4-.5-.8-1.1-1.1-1.6-1.5-2.2-3.9-3.5-6.6-3.3h0s-.3,0-.3,0l-5.1.3c-40.6,2.1-65.8-5.2-67.8-14.7v-.2s-61.1-209.7-61.1-209.7c-1-3.3,1.9-6.4,5.3-5.8,6.8,1.2,15.2,1.8,25.2,1.8s2.5,0,3.8,0c15.5-.2,33.4-1.7,52.8-4.4,2.5-.3,4.3-2.7,3.9-5.2,0-.6-.1-1.2-.2-1.8-.3-2.6-2.6-4.4-5.2-4.1-18.9,2.6-36.4,4.1-51.4,4.3-31.2.4-39.7-4.9-40.5-6.7v-.2c0,0,0,0,0,0-.2-1.7,4.9-10.2,34.1-22.9,13.7-6,30.1-11.8,48.2-17.2,5.7-1.7,10.8-5.1,14.5-9.8,0,0,0-.1.1-.2,1.8-2.3-.3-5.7-3.2-4.9-24.3,6.6-46.4,14.1-64.1,21.8-29.7,12.9-43,24.6-40.6,35.6,0,.1,0,.2.1.4h0s67.5,231.8,67.5,231.8c2.9,12.8,19.4,20.7,47.6,23,5.4.4,11.1.6,17.1.6,6.6,0,13.5-.3,20.7-.8,3.5,4.9,7.5,10,12,15.2-17.1,9.2-31.1,14.1-41.2,14.3-2-.4-8.6-1.6-16.1-2.2-13-1-22,.4-27.5,4.3-7.2,5-5.9,18.3,4.5,46,2.9,7.8,6.1,15.3,8.7,21.4,0,0,0-.1,0-.2-21,1.6-35.8,5.3-35.8,9.6s26.4,10.4,59,10.4c74.6,0,69.5-4.5,72.8-14.2,0,0,0-.2,0-.3,0,0,0,0,0,0,.4-.7.7-1.5,1-2.2,3.4-9,.3-19.2-7.1-25.4-2-1.6-3.9-3.1-5.8-4.3,8.1-3.5,18.4-8.4,29.7-14.8,6.1,5.3,12.5,10.8,19.3,16.3,10.3,8.4,20.2,15.9,28.5,22,2.2,1.6,1.2,5-1.4,5.3-13.9,1.6-23.1,4.3-23.1,7.3,0,4.9,23,8.8,51.4,8.8s51.4-3.9,51.4-8.8-8.4-5.5-21.3-7.1c-2.8-.4-3.8-4-1.6-5.7,11.8-9.2,24.9-20.2,31.8-28,5-5.6,9-12.6,11.2-19.8,2.6-8.3,2.7-16,.2-22.4ZM268.3,488.6c-1.4,3.5-4.9,7.3-10.6,7.1l-39.9-.8c-13.3-.3-25.2-8.4-30.2-20.7-1-2.4-2-5-3-7.5-4.9-12.7-7.3-21.1-8.4-26.5-1.2-5.7,3-11.1,8.8-11.4,8-.5,18.3.7,25.6,2.3h.6c0,.1.6.1.6.1,16.3,0,29.6-5.3,50.4-17.7,5.7,13.2,5.2,36.1-8.4,42.8-4.2,1.5-7,2.2-8.4,2.7,0,0,0,0-.1,0-2.9.6-5.1,3.4-4.6,6.4.5,3.1,3.6,5.1,6.6,4.5.8-.2,1.4-.3,1.5-.3,4.4-1.3,10,1,16.6,6.7,4.4,3.8,4.5,9,3.1,12.5ZM311.5,134.2c1.4-2.4.8-5.1.2-7.7-2.6-11-6.7-24.8-16.3-31.3-6.5-4.6-15.7-4.4-21.5,1.3-14.8,14.6-5.3,45.9-1.7,64.4,3.1,12.5,7.9,26.6,19.9,31.6,13.8,5.4,24.3-7.7,25.1-20.5.8-6.9.1-14.3-.9-21.2-.3-1.9-.6-4.2-2-5.5h-.2c-4-2.4-10.1,1-14.5.7-.4-.1-.3-.4-.1-.7,1.4-2.1,9.7-7,11.9-11ZM175.8,108c-.7.4-1.1,1.2-.8,1.9.3.7,1,1.2,1.9,1.1.5,0,1.1,0,1.6,0,14.5-.8,28.3-7.7,36.8-18.5,1.4-1.7,2.6-3.5,3.6-5.3,1.7-2.9,4.4-5.1,7.7-5.8,1.8-.4,3.6-.8,5.4-1.2,9.1-2,18.1-3.7,27-5.3,2.4-.4,3.4-3.4,1.7-5.1s0,0,0,0c-3.3-3.4-8-4.9-12.7-4.1-6,1.1-12.1,2.4-18.2,3.7-.9.2-1.9.4-2.8.6-1.6.4-3.2-.8-3.3-2.5-.3-3.6-1.2-7.1-2.7-10.5-.3-.7-1.1-1.1-1.9-1,0,0,0,0,0,0-.9,0-1.6.6-1.8,1.3-4.7,19.2-12.3,31.4-25.4,40.8-4.5,3.4-9.7,6.6-15.8,10ZM187.9,211.1c-16.9-3.7-37.3-9.3-44-19.3h0c-1.3-1.9-2.5-4.8-1.2-8.2,1.9-5,8.3-9.2,17.2-11.2h.2c5.7-1.6,12.8-2.3,21-2.3s14.1.5,22.1,1.4v-.2c-.5-2.4-1.1-4.9-1.7-7.6,0-.2,0-.4-.1-.7-.4-1.7-1.8-3.1-3.6-3.2-16.4-1.5-30.2-.9-40.5,1.8-17.3,4.1-23.1,13.1-25,18.1-2.3,6.1-1.4,12.9,2.5,18.5,0,0,0,0,0,0h-.4c0,.1,44.3,148.6,44.3,148.6,2.4,10.1,15.4,15.8,38.7,17,2.9.1,6,.2,9.1.2,19,0,41.8-2.7,65.3-7.8,27.4-5.9,52.5-14.4,70.9-23.8,20.7-10.7,30.3-21.2,28.3-31.4,0,0-10.3-96.9-10.6-97.8-1.5-4.6-6.1-5.4-16.1-7.1-4.3-.7-9.6-1.6-16-2.9h-.1c-6.3-1.2-13.6-2.7-21.9-4.7-1.9-.4-3.8.4-4.9,2-.3.5-.7,1-1,1.5-2,2.6-.5,6.5,2.7,7.2,8.7,2,16.4,3.7,23,4.9,2.3.5,4.5.9,6.6,1.3,2.7.5,2.9,4.2.4,5.1-5.5,1.9-12.2,3.8-19.6,5.5-21.2,4.8-45.7,6.5-70.7,4.9-26.5-1.7-52.3-5.1-74.7-9.8ZM335.9,226.8c11.1-2.5,21.2-5.7,28.8-8.8,2.8-1.2,6,.7,6.3,3.8l9,80.8v.3s0,.3,0,.3c.5,2.4-3.5,9.7-22.5,19.4-17.5,9-41.7,17.1-68.1,22.8-26.4,5.7-51.8,8.3-71.5,7.3-21.3-1.1-27.9-6-28.5-8.4v-.2s-37.1-124-37.1-124c-1.1-3.7,2.5-7,6.1-5.6,8.2,3.1,17.6,5.5,27,7.6,23,4.8,49.4,8.3,76.4,10.1,6.4.4,12.7.6,19,.6,19.4,0,38.1-2,54.9-5.8ZM252.2,142.6c1.4-2.4.8-5.1.2-7.7-2.6-11-6.7-24.8-16.3-31.3-6.5-4.6-15.7-4.4-21.5,1.3-14.8,14.6-5.3,45.9-1.7,64.4,3.1,12.5,7.9,26.6,19.9,31.6,13.8,5.4,24.3-7.7,25.1-20.5.8-6.9.1-14.3-.9-21.2-.3-1.9-.6-4.2-2-5.5h-.2c-4-2.4-10.1,1-14.5.7-.4-.1-.3-.4-.1-.7,1.4-2.1,9.7-7,11.9-11Z"/>
</svg>