<?xml version="1.0" encoding="UTF-8"?>
<svg xmlns="http://www.w3.org/2000/svg" version="1.1" viewBox="0 0 361 361">
  <defs>
    <style>
      .cls-1 {
        fill: #191919;
      }
    </style>
  </defs>
  <!-- Generator: Adobe Illustrator 28.6.0, SVG Export Plug-In . SVG Version: 1.2.0 Build 709)  -->
  <g>
    <g id="Layer_1">
      <g id="Layer_1-2" data-name="Layer_1">
        <path class="cls-1" d="M245.9,355.7c-3.8,0-7.6-.4-11.6-1.4l-184.1-45.7c-12.4-3.1-22.7-10.7-29.3-21.6-6.5-10.9-8.5-23.7-5.4-35.9L67.9,41.3c3.1-12.3,10.7-22.6,21.7-29.2,11-6.5,23.8-8.4,36.1-5.4l184.1,45.8c25.5,6.4,41.1,32.1,34.7,57.5l-52.5,209.7c-5.4,21.6-24.9,36-46.2,36h0ZM114.1,29c-4.2,0-8.5,1.1-12.2,3.4-5.5,3.3-9.3,8.4-10.8,14.6l-52.6,209.7c-1.5,6.2-.6,12.6,2.7,18,3.3,5.5,8.5,9.3,14.7,10.8l184.1,45.7c12.7,3.2,25.7-4.6,28.9-17.3l52.5-209.7c3.2-12.7-4.6-25.6-17.4-28.8L119.9,29.8c-1.9-.4-3.8-.7-5.8-.7h0ZM115.5,77.6l171,42.5c3.9.9,6.2,4.8,5.3,8.7l-2.3,9.1c-.9,3.9-4.9,6.2-8.8,5.2l-171-42.5c-3.9-.9-6.2-4.8-5.3-8.7l2.3-9.1c.9-3.9,4.9-6.3,8.8-5.2h0ZM102.4,131.4l171,42.5c3.9.9,6.2,4.8,5.3,8.7l-2.3,9.1c-.9,3.9-4.9,6.2-8.8,5.2l-171-42.5c-3.9-.9-6.2-4.8-5.3-8.7l2.3-9.1c.9-3.9,4.9-6.2,8.8-5.2ZM89,181.8l78.5,19.4c3.9.9,6.2,4.8,5.3,8.7l-2.3,9.1c-.9,3.9-4.9,6.2-8.8,5.2l-78.5-19.4c-3.9-.9-6.2-4.8-5.3-8.7l2.3-9.1c.9-3.9,4.9-6.2,8.8-5.2Z"/>
      </g>
    </g>
  </g>
</svg>