<?xml version="1.0" encoding="UTF-8"?>
<svg xmlns="http://www.w3.org/2000/svg" version="1.1" viewBox="0 0 361 361">
  <defs>
    <style>
      .cls-1 {
        fill: #f9f9f9;
        fill-opacity: .8;
      }
    </style>
  </defs>
  <!-- Generator: Adobe Illustrator 28.6.0, SVG Export Plug-In . SVG Version: 1.2.0 Build 709)  -->
  <g>
    <g id="Layer_1">
      <g id="Layer_1-2" data-name="Layer_1">
        <path class="cls-1" d="M181.4,64.1h58c16.1,0,31.2,3.6,42.8,15.2,11.6,11.6,15.2,26.8,15.2,42.8v115.9c0,16.1-3.6,31.2-15.2,42.8-11.6,11.6-26.8,15.2-42.8,15.2h-115.9c-16.1,0-31.2-3.6-42.8-15.2-11.6-11.6-15.2-26.8-15.2-42.8v-115.9c0-16.1,3.6-31.2,15.2-42.8,11.6-11.6,26.8-15.2,42.8-15.2h58M181.4,38.3h-58.9c-23.2.9-43.7,7.1-59.7,23.2-16.1,16.9-22.3,37.5-24.1,60.6v117.7c.9,23.2,7.1,43.7,23.2,59.7,16.1,16.1,36.6,22.3,59.7,23.2h117.7c23.2-.9,43.7-7.1,59.7-23.2,16.1-16.1,22.3-36.6,23.2-59.7v-117.7c-.9-23.2-7.1-43.7-23.2-59.7-15.2-16.1-35.7-22.3-58.9-24.1h-58.9.2Z"/>
        <path class="cls-1" d="M180.5,114.4c-40.1,0-73.1,33-73.1,73.1s33,73.1,73.1,73.1,73.1-33,73.1-73.1-33-73.1-73.1-73.1ZM180.5,234.8c-25.9,0-47.3-21.4-47.3-47.3s21.4-47.3,47.3-47.3,47.3,21.4,47.3,47.3-21.4,47.3-47.3,47.3Z"/>
        <circle class="cls-1" cx="253.6" cy="104.5" r="16.9"/>
      </g>
    </g>
  </g>
</svg>