<?xml version="1.0" encoding="UTF-8"?>
<svg xmlns="http://www.w3.org/2000/svg" xmlns:xlink="http://www.w3.org/1999/xlink" version="1.1" viewBox="0 0 361 361">
  <defs>
    <style>
      .cls-1 {
        fill: none;
      }

      .cls-2 {
        fill-opacity: .2;
      }

      .cls-2, .cls-3, .cls-4 {
        fill: #f9f9f9;
      }

      .cls-3 {
        fill-opacity: .8;
      }

      .cls-4 {
        fill-opacity: .5;
      }

      .cls-5 {
        clip-path: url(#clippath);
      }
    </style>
    <clipPath id="clippath">
      <rect class="cls-1" x="6" width="350" height="361"/>
    </clipPath>
  </defs>
  <!-- Generator: Adobe Illustrator 28.6.0, SVG Export Plug-In . SVG Version: 1.2.0 Build 709)  -->
  <g>
    <g id="Layer_1">
      <g class="cls-5">
        <g>
          <path class="cls-2" d="M6,206l.9-131.3c.1-23.7,16.7-44.1,39.7-48.7L173.3,1c30.4-6,58.7,17.8,58.5,49.3l-.9,131.3c-.1,23.7-16.7,44.1-39.7,48.7l-126.8,25.2c-30.5,5.9-58.7-17.9-58.5-49.4Z"/>
          <path class="cls-4" d="M68.1,258.4l.9-131.3c.1-23.7,16.7-44.1,39.7-48.7l126.8-25.2c30.4-6,58.7,17.8,58.5,49.3l-.9,131.3c-.1,23.7-16.7,44.1-39.7,48.7l-126.8,25.2c-30.4,6-58.7-17.8-58.5-49.3Z"/>
          <path class="cls-3" d="M130.1,310.7l.9-131.3c.1-23.7,16.7-44.1,39.7-48.7l126.8-25.2c30.4-6,58.7,17.8,58.5,49.3l-.9,131.3c-.1,23.7-16.7,44.1-39.7,48.7l-126.8,25.2c-30.4,6-58.7-17.8-58.5-49.3Z"/>
        </g>
      </g>
    </g>
  </g>
</svg>