<?xml version="1.0" encoding="UTF-8"?>
<svg xmlns="http://www.w3.org/2000/svg" version="1.1" viewBox="0 0 221 193.2">
  <defs>
    <style>
      .cls-1 {
        fill: #f9f9f9;
      }
    </style>
  </defs>
  <!-- Generator: Adobe Illustrator 28.6.0, SVG Export Plug-In . SVG Version: 1.2.0 Build 709)  -->
  <g>
    <g id="Layer_1">
      <path class="cls-1" d="M34,193.2H1c-.6,0-1-.4-1-1V48.6c0-.2.1-.4.2-.6L34.2.4c.2-.2.5-.4.8-.4h33c.6,0,1,.4,1,1v143.6c0,.2,0,.4-.2.6l-34,47.6c-.2.2-.5.4-.8.4ZM110.8,192.8l34-47.6c.1-.2.2-.4.2-.6V1c0-.6-.4-1-1-1h-33c-.3,0-.6.2-.8.4l-34.1,47.6c0,.2,0,.4,0,.6v143.6c0,.6.4,1,1,1h33c.3,0,.6-.2.8-.4ZM186.7,192.8l34-47.6c.1-.2.2-.4.2-.6V1c0-.6-.4-1-1-1h-33c-.3,0-.6.2-.8.4l-34,47.6c-.1.2-.2.4-.2.6v143.6c0,.6.4,1,1,1h33c.4,0,.7-.2.8-.4Z"/>
    </g>
  </g>
</svg>