<?xml version="1.0" encoding="UTF-8"?>
<svg xmlns="http://www.w3.org/2000/svg" version="1.1" viewBox="0 0 361 361">
  <defs>
    <style>
      .cls-1 {
        fill: #f9f9f9;
        fill-opacity: .8;
        fill-rule: evenodd;
      }
    </style>
  </defs>
  <!-- Generator: Adobe Illustrator 28.6.0, SVG Export Plug-In . SVG Version: 1.2.0 Build 709)  -->
  <g>
    <g id="Layer_1">
      <path class="cls-1" d="M102.4,32.8c3.7-2.3,7.9-3.4,12.2-3.4s3.9.3,5.8.7l183.6,45.6c12.7,3.2,20.5,16.1,17.3,28.8l-52.3,209.4c-3.2,12.6-16.2,20.5-28.9,17.3l-183.6-45.6c-6.2-1.5-11.3-5.3-14.6-10.8-3.3-5.4-4.2-11.8-2.7-18L91.6,47.4c1.5-6.2,5.4-11.3,10.8-14.6ZM286.5,120.4l-170.5-42.4c-3.9-1-7.8,1.3-8.8,5.2l-2.3,9c-.9,3.9,1.3,7.8,5.3,8.7l170.5,42.4c3.9.9,7.8-1.3,8.8-5.2l2.3-9c.9-3.9-1.3-7.8-5.3-8.7ZM273.5,174.1l-170.5-42.4c-3.9-.9-7.8,1.3-8.8,5.2l-2.3,9c-.9,3.9,1.3,7.8,5.3,8.7l170.5,42.4c3.9.9,7.8-1.3,8.8-5.2l2.3-9c.9-3.9-1.3-7.8-5.3-8.7ZM167.9,201.5l-78.3-19.4c-3.9-.9-7.8,1.3-8.8,5.2l-2.3,9c-.9,3.9,1.3,7.8,5.3,8.7l78.3,19.4c3.9.9,7.8-1.3,8.8-5.2l2.3-9c.9-3.9-1.3-7.8-5.3-8.7Z"/>
    </g>
  </g>
</svg>